<?xml version="1.0" standalone="no"?>
<!DOCTYPE svg PUBLIC "-//W3C//DTD SVG 20010904//EN"
 "http://www.w3.org/TR/2001/REC-SVG-20010904/DTD/svg10.dtd">
<svg version="1.0" xmlns="http://www.w3.org/2000/svg"
 width="791.000000pt" height="791.000000pt" viewBox="0 0 791.000000 791.000000"
 preserveAspectRatio="xMidYMid meet">
<metadata>
Created by potrace 1.14, written by Peter Selinger 2001-2017
</metadata>
<g transform="translate(0.000000,791.000000) scale(0.100000,-0.100000)"
fill="#000000" stroke="none">
<path d="M3695 7854 c-737 -59 -1364 -273 -1960 -669 -383 -254 -773 -637
-1037 -1015 -377 -541 -606 -1155 -680 -1825 -17 -157 -17 -623 0 -780 102
-923 493 -1732 1149 -2376 148 -146 238 -225 378 -330 578 -436 1223 -694
1965 -786 204 -25 686 -25 890 0 743 92 1386 349 1965 786 140 105 230 184
378 330 655 644 1047 1454 1149 2376 17 157 17 623 0 780 -51 456 -171 882
-362 1283 -119 248 -292 522 -476 752 -134 168 -429 464 -594 596 -602 481
-1281 766 -2050 859 -129 16 -598 28 -715 19z m-1165 -3386 c6 -18 16 -41 21
-50 5 -10 9 -27 9 -37 0 -11 4 -22 9 -25 5 -4 12 -24 16 -46 4 -22 11 -42 16
-46 5 -3 9 -16 9 -29 0 -13 4 -26 9 -29 5 -4 12 -24 16 -46 4 -22 11 -42 16
-46 5 -3 9 -16 9 -30 0 -13 5 -24 10 -24 6 0 10 -8 10 -17 0 -10 12 -49 25
-88 14 -38 25 -77 25 -86 0 -18 20 -29 50 -29 10 0 22 -4 25 -10 4 -6 -42 -10
-130 -10 -88 0 -134 4 -130 10 3 6 19 10 36 10 20 0 29 5 29 16 0 19 -28 112
-41 136 -5 10 -9 26 -9 37 0 27 -18 31 -130 31 -107 0 -113 -3 -125 -60 -4
-19 -11 -41 -15 -50 -15 -30 -28 -65 -33 -87 -4 -19 -1 -23 21 -23 15 0 34 -5
42 -10 10 -7 -15 -10 -80 -10 -57 0 -90 4 -85 9 6 5 23 11 38 13 25 3 31 10
48 63 11 33 24 69 29 80 4 11 16 43 25 70 9 28 21 58 26 67 5 10 9 25 9 33 0
15 3 23 27 70 6 12 14 36 18 55 7 32 11 41 35 90 6 11 10 29 10 40 0 11 5 20
10 20 6 0 10 9 10 20 0 13 9 22 25 26 14 3 25 10 25 15 0 23 29 6 40 -23z
m2535 -6 c5 -17 13 -32 17 -32 4 0 8 -13 8 -29 0 -17 4 -32 9 -35 5 -4 12 -24
16 -46 4 -22 11 -42 16 -46 5 -3 9 -16 9 -30 0 -13 5 -24 10 -24 6 0 10 -8 10
-17 0 -10 11 -49 25 -88 13 -38 25 -78 25 -87 0 -10 5 -18 10 -18 6 0 10 -11
10 -23 0 -13 3 -27 7 -31 4 -4 14 -30 23 -59 14 -45 19 -52 48 -58 67 -14 42
-19 -92 -19 -89 0 -135 4 -131 10 3 6 19 10 34 10 l28 0 -14 58 c-8 31 -17 67
-20 80 -3 12 -9 25 -14 28 -5 3 -9 13 -9 24 0 10 -7 21 -16 24 -22 9 -197 7
-210 -2 -6 -4 -17 -25 -24 -47 -7 -22 -16 -48 -21 -57 -5 -10 -9 -27 -9 -38 0
-11 -4 -20 -9 -20 -5 0 -11 -11 -13 -25 -5 -23 -2 -25 33 -25 22 0 39 -4 39
-10 0 -6 -35 -10 -85 -10 -50 0 -85 4 -85 10 0 6 16 10 35 10 31 0 35 3 35 25
0 14 5 25 10 25 6 0 10 10 10 23 0 12 7 35 15 51 8 15 15 37 15 47 0 11 5 19
10 19 6 0 10 8 10 17 0 19 27 100 58 173 6 14 18 48 27 75 9 28 21 58 26 67 5
10 9 29 9 43 0 14 4 25 9 25 5 0 11 9 14 21 3 11 15 23 26 26 12 3 21 10 21
15 0 23 36 0 45 -30z m1505 28 c0 -5 10 -10 23 -10 38 0 47 -19 47 -97 0 -58
-3 -73 -15 -73 -9 0 -15 9 -15 25 0 14 -4 25 -10 25 -5 0 -10 7 -10 16 0 22
-38 74 -55 74 -7 0 -15 5 -17 11 -2 6 -27 12 -55 12 -61 1 -95 -19 -119 -68
-15 -33 -15 -37 1 -72 10 -21 23 -42 29 -48 21 -20 65 -45 80 -45 8 0 16 -4
18 -8 2 -5 35 -29 75 -55 41 -26 78 -59 87 -76 20 -38 21 -143 2 -180 -17 -32
-77 -81 -100 -81 -9 0 -16 -4 -16 -10 0 -5 -11 -10 -25 -10 -14 0 -25 -4 -25
-10 0 -14 -102 -13 -137 1 -15 7 -43 19 -60 28 l-33 16 0 82 c0 46 3 83 8 83
7 0 25 -37 36 -75 18 -61 102 -110 176 -103 77 8 120 65 106 142 -7 35 -59 96
-83 96 -7 0 -13 4 -13 8 0 5 -31 26 -70 47 -38 21 -70 42 -70 47 0 4 -5 8 -12
8 -16 0 -58 41 -58 57 0 7 -4 13 -10 13 -14 0 -12 96 3 122 16 29 54 68 65 68
5 0 15 7 22 15 7 8 23 15 36 15 13 0 24 5 24 10 0 6 35 10 85 10 50 0 85 -4
85 -10z m-4920 -10 c0 -5 -16 -10 -35 -10 l-35 0 0 -142 0 -141 22 19 c33 29
156 145 199 187 21 20 42 37 48 37 11 0 22 26 14 34 -4 3 -17 6 -30 6 -13 0
-23 5 -23 10 0 13 160 13 180 0 11 -7 4 -10 -26 -10 -34 0 -48 -7 -98 -52
-122 -111 -238 -230 -218 -224 13 4 25 1 34 -9 7 -9 22 -26 33 -38 11 -12 27
-31 35 -43 8 -12 33 -42 55 -67 49 -55 62 -71 100 -122 51 -68 59 -75 82 -75
12 0 25 -4 28 -10 4 -6 -26 -10 -82 -10 l-89 0 -37 40 c-20 22 -45 53 -54 68
-10 15 -27 37 -39 48 -11 12 -38 43 -60 70 -81 101 -74 106 -74 -59 l0 -147
35 0 c19 0 35 -4 35 -10 0 -6 -48 -10 -125 -10 -77 0 -125 4 -125 10 0 6 16
10 35 10 l35 0 0 309 c0 333 2 321 -51 321 -11 0 -17 5 -14 10 4 6 57 10 126
10 73 0 119 -4 119 -10z m1550 1 c0 -6 -15 -11 -32 -13 l-33 -3 -3 -312 -2
-313 114 0 114 0 26 53 c14 30 26 60 26 68 1 15 23 49 34 49 3 0 6 -43 6 -95
l0 -95 -251 0 c-164 0 -248 3 -244 10 3 6 22 10 41 10 l34 0 0 309 c0 336 3
321 -56 321 -14 0 -22 4 -19 10 8 13 245 13 245 1z m945 -1 c4 -6 -8 -10 -29
-10 l-36 0 0 -150 0 -151 138 3 137 3 0 145 0 145 -33 3 c-18 2 -30 8 -27 13
8 12 226 11 245 -1 11 -7 5 -10 -22 -10 l-38 0 0 -315 0 -315 29 0 c17 0 33
-4 36 -10 4 -6 -40 -10 -124 -10 -81 0 -131 4 -131 10 0 6 16 10 35 10 l35 0
0 155 0 155 -140 0 -140 0 0 -155 0 -155 29 0 c17 0 33 -4 36 -10 4 -6 -40
-10 -125 -10 -85 0 -129 4 -125 10 3 6 22 10 41 10 l34 0 0 309 c0 336 3 321
-56 321 -14 0 -22 4 -19 10 4 6 57 10 125 10 68 0 121 -4 125 -10z m1554 -19
c12 -16 21 -34 21 -40 0 -6 4 -11 10 -11 5 0 12 -11 16 -25 3 -14 9 -25 13
-25 5 0 20 -21 35 -47 36 -65 50 -87 57 -93 9 -7 109 -169 109 -176 0 -7 27
-34 34 -34 4 0 5 102 4 228 l-3 227 -33 3 c-62 6 -20 22 59 22 77 0 111 -16
47 -22 l-33 -3 -3 -321 c-2 -287 -4 -323 -19 -328 -30 -12 -48 4 -98 85 -27
45 -52 87 -54 93 -2 5 -12 18 -21 28 -9 10 -26 36 -36 58 -10 22 -22 40 -26
40 -5 0 -8 6 -8 14 0 8 -3 16 -8 18 -4 2 -23 28 -42 58 -51 79 -59 93 -66 113
-3 9 -9 17 -13 17 -4 0 -17 18 -30 40 -12 22 -24 40 -27 40 -2 0 -4 -130 -4
-290 l0 -290 35 0 c19 0 35 -4 35 -10 0 -6 -35 -10 -86 -10 -54 0 -83 4 -79
10 3 6 22 10 41 10 l34 0 0 309 c0 336 3 321 -56 321 -14 0 -22 4 -19 10 3 6
48 10 100 10 92 0 94 -1 114 -29z m-4192 -868 c4 -10 9 -20 12 -23 10 -9 31
-44 37 -62 12 -34 24 -18 24 30 0 26 -5 53 -12 60 -9 9 -6 12 16 12 22 0 27
-4 22 -16 -3 -9 -6 -56 -6 -105 0 -52 -4 -89 -10 -89 -5 0 -22 19 -37 43 -16
23 -31 44 -35 45 -5 2 -8 8 -8 14 0 5 -16 28 -35 51 -19 22 -35 44 -35 49 0
17 61 8 67 -9z m773 1 c0 -26 52 -174 62 -174 4 0 8 -4 8 -10 0 -5 -16 -10
-35 -10 -33 0 -35 2 -35 35 0 33 -2 35 -33 35 -39 0 -66 -32 -46 -56 9 -11 7
-14 -16 -14 -14 0 -25 3 -23 8 2 4 10 21 17 37 7 17 17 38 22 47 5 10 9 25 9
33 0 8 5 15 10 15 6 0 10 9 10 19 0 11 3 26 6 35 8 21 44 21 44 0z m765 -5
c10 -31 -10 -46 -27 -20 -7 11 -19 21 -26 21 -11 0 -13 -20 -10 -95 l3 -95
-35 0 c-26 0 -31 3 -22 12 17 17 16 178 -1 178 -7 0 -18 -10 -25 -21 -17 -26
-37 -11 -27 20 6 19 14 21 85 21 71 0 79 -2 85 -21z m615 11 c0 -5 -4 -10 -10
-10 -14 0 -13 -103 2 -134 13 -31 43 -42 64 -25 12 10 15 31 12 96 -3 74 -1
83 15 83 9 0 17 -4 17 -10 0 -5 -4 -10 -10 -10 -6 0 -10 -33 -10 -78 0 -86
-15 -112 -66 -112 -46 0 -64 33 -64 117 0 42 -4 73 -10 73 -5 0 -10 5 -10 10
0 6 16 10 35 10 19 0 35 -4 35 -10z m802 -7 c24 -21 23 -45 -2 -68 -26 -23
-25 -28 5 -73 14 -20 25 -40 25 -45 0 -18 -46 -1 -55 21 -5 12 -13 22 -17 22
-5 0 -8 7 -8 15 0 8 -7 15 -16 15 -14 0 -16 -7 -11 -40 l5 -40 -36 0 c-28 0
-33 3 -24 12 16 16 16 170 0 186 -20 20 111 16 134 -5z m705 -3 c7 -10 16 -37
19 -60 4 -22 11 -43 15 -46 5 -3 9 -16 9 -30 0 -13 5 -24 10 -24 6 0 10 -7 10
-15 0 -10 -11 -15 -35 -15 -33 0 -48 14 -24 22 8 3 8 10 -2 26 -10 15 -24 22
-46 22 -31 0 -33 -2 -33 -35 0 -29 -4 -35 -22 -35 -17 0 -19 3 -10 12 7 7 12
22 12 35 0 13 5 23 10 23 6 0 10 11 10 25 0 14 5 25 10 25 6 0 10 9 10 20 0
27 21 70 34 70 6 0 17 -9 23 -20z m695 -75 c-3 -94 -3 -95 20 -95 15 0 30 10
40 28 l17 27 1 -37 0 -38 -77 0 c-60 0 -74 3 -65 12 7 7 12 43 12 93 0 50 -5
86 -12 93 -9 9 -3 12 28 12 l39 0 -3 -95z m748 70 c0 -14 -4 -25 -10 -25 -5 0
-10 7 -10 15 0 16 -45 21 -54 6 -8 -12 3 -41 15 -41 19 0 79 -58 79 -76 0 -24
-52 -64 -84 -64 -38 0 -56 15 -56 47 l0 24 25 -26 c14 -14 30 -25 35 -25 20 0
40 13 40 27 0 16 -23 43 -37 43 -13 0 -63 50 -63 63 0 31 35 57 78 57 38 0 42
-2 42 -25z m-5125 -175 c4 -6 -5 -10 -19 -10 -14 0 -26 5 -26 10 0 6 9 10 19
10 11 0 23 -4 26 -10z"/>
<path d="M2432 4359 c-7 -10 -12 -26 -12 -34 0 -8 -4 -23 -9 -33 -24 -48 -61
-153 -61 -175 0 -9 -4 -17 -10 -17 -5 0 -10 -4 -10 -10 0 -6 42 -10 105 -10
106 0 114 3 96 38 -13 28 -41 118 -41 136 0 9 -4 16 -10 16 -5 0 -10 8 -10 18
0 9 -6 34 -13 54 -12 34 -14 35 -25 17z"/>
<path d="M4963 4353 c-7 -15 -13 -35 -13 -45 0 -10 -4 -18 -10 -18 -5 0 -10
-11 -10 -24 0 -14 -4 -27 -9 -30 -5 -4 -12 -24 -16 -46 -4 -22 -11 -40 -16
-40 -5 0 -9 -11 -9 -25 0 -14 -5 -25 -11 -25 -5 0 -7 -4 -4 -10 3 -6 50 -10
106 -10 110 0 111 1 84 67 -8 19 -15 44 -15 54 0 11 -4 19 -10 19 -5 0 -10 11
-10 24 0 14 -4 28 -10 31 -5 3 -10 16 -10 28 -1 12 -6 34 -13 50 l-12 27 -12
-27z"/>
<path d="M2226 3525 c-10 -27 -7 -35 15 -35 15 0 20 5 17 22 -4 27 -23 35 -32
13z"/>
<path d="M4380 3566 c0 -43 10 -57 31 -45 12 6 19 20 19 39 0 25 -4 30 -25 30
-20 0 -25 -5 -25 -24z"/>
<path d="M5123 3537 c-18 -40 -16 -47 13 -47 20 0 24 3 16 13 -5 6 -12 23 -14
37 l-3 24 -12 -27z"/>
</g>
</svg>
